# xmcd
#
# Track frame offsets:
#	150
#	11414
#	24990
#	41631
#	54567
#	67280
#	79407
#	92147
#	104522
#	116622
#	128192
#	140570
#	152363
#	163905
#	177342
#
# Disc length: 2519 seconds
#
# Revision: 0
# Processed by: cddbd v1.5.1PL0 Copyright (c) Steve Scherf et al.
# Submitted via: dBpowerAMP V4.0
#
DISCID=ce09d50f
DTITLE=Hank Williams - The Prodigal Son
DYEAR=2004
DGENRE=Country
TTITLE0=Prodigal Son
TTITLE1=A Mansion On The Hill
TTITLE2=A Tramp On The Street
TTITLE3=I Can't Get You Off My Mind
TTITLE4=Move It On Over
TTITLE5=Long Gone Lonesome Blues
TTITLE6=Six More Miles
TTITLE7=Never Again
TTITLE8=I'll Be A Bachelor Till I Die
TTITLE9=My Buckets Got A Hole In It
TTITLE10=Howlin' At The Moon
TTITLE11=Dear Joihn
TTITLE12=I'm Long Gone Daddy
TTITLE13=You're Gonna Change (Or I'm Gonna Leave)
TTITLE14=My Son Calls Another Man Daddy
EXTD=
EXTT0=
EXTT1=
EXTT2=
EXTT3=
EXTT4=
EXTT5=
EXTT6=
EXTT7=
EXTT8=
EXTT9=
EXTT10=
EXTT11=
EXTT12=
EXTT13=
EXTT14=
PLAYORDER=
